<svg viewBox="0 0 940 520" xmlns="http://www.w3.org/2000/svg" font-family="Inter, Segoe UI, system-ui, sans-serif" role="img" aria-label="Diagrama de contexto do sistema Mintly">
  <style>
    .bg { fill: #ffffff; } .card { fill: #f8fafc; stroke: #e2e8f0; stroke-width: 1.2; }
    .title { fill: #0f172a; font-weight: 700; font-size: 15px; }
    .h { fill: #0f172a; font-weight: 700; font-size: 13px; }
    .sub { fill: #64748b; font-size: 10.5px; }
    .rel { stroke: #94a3b8; stroke-width: 1.8; fill: none; marker-end: url(#a); }
    .ah { fill: #94a3b8; }
    .relt { fill: #64748b; font-size: 9.5px; }
    .lib { stroke: #8b5cf6; stroke-width: 1.6; fill: none; stroke-dasharray: 5 4; marker-end: url(#av); }
    .libt { fill: #7c3aed; font-size: 9.5px; font-style: italic; }
    .focus { stroke: #4f46e5; stroke-width: 2; }
    @media (prefers-color-scheme: dark) {
      .bg { fill: #0b1120; } .card { fill: #111827; stroke: #334155; }
      .title, .h { fill: #e5edf7; } .sub, .relt { fill: #94a3b8; }
      .rel, .ah { stroke: #64748b; fill: #64748b; } .lib { stroke: #a78bfa; } .libt { fill: #a78bfa; }
      .focus { stroke: #818cf8; }
    }
  </style>
  <defs>
    <marker id="a" viewBox="0 0 10 10" refX="8" refY="5" markerWidth="7" markerHeight="7" orient="auto-start-reverse"><path class="ah" d="M0,0 L10,5 L0,10 z"/></marker>
    <marker id="av" viewBox="0 0 10 10" refX="8" refY="5" markerWidth="7" markerHeight="7" orient="auto-start-reverse"><path d="M0,0 L10,5 L0,10 z" fill="#8b5cf6"/></marker>
    <symbol id="db" viewBox="0 0 56 42"><ellipse cx="28" cy="9" rx="23" ry="7" fill="none" stroke="#64748b" stroke-width="1.5"/><path d="M5 9 v24 a23 7 0 0 0 46 0 v-24" fill="none" stroke="#64748b" stroke-width="1.5"/></symbol>
  </defs>

  <rect class="bg" x="0" y="0" width="940" height="520"/>
  <text class="title" x="28" y="34">Diagrama de contexto — o sistema Mintly e seus vizinhos</text>
  <text class="sub" x="28" y="53">Quem usa, o que a API fala, e como o contrato (mintly-lib) mantém Web e API em sincronia.</text>

  <!-- actor -->
  <circle cx="70" cy="150" r="16" fill="none" stroke="#64748b" stroke-width="1.6"/>
  <line x1="70" y1="166" x2="70" y2="196" stroke="#64748b" stroke-width="1.6"/>
  <line x1="52" y1="178" x2="88" y2="178" stroke="#64748b" stroke-width="1.6"/>
  <line x1="70" y1="196" x2="56" y2="216" stroke="#64748b" stroke-width="1.6"/>
  <line x1="70" y1="196" x2="84" y2="216" stroke="#64748b" stroke-width="1.6"/>
  <text class="h" x="42" y="240" font-size="11">Dono do</text>
  <text class="h" x="42" y="254" font-size="11">restaurante</text>

  <!-- Web -->
  <rect class="card" x="160" y="120" width="180" height="86" rx="11"/>
  <text class="h" x="178" y="146">MintlyWeb</text>
  <text class="sub" x="178" y="166">Angular 21 (SPA)</text>
  <text class="sub" x="178" y="184">a interface do dono</text>
  <text class="sub" x="178" y="198">no navegador</text>

  <!-- API (focus) -->
  <rect class="card focus" x="392" y="112" width="200" height="102" rx="12"/>
  <text class="h" x="412" y="138" fill="#4f46e5">MintlyApi</text>
  <text class="sub" x="412" y="158">Fastify · Node 20+</text>
  <text class="sub" x="412" y="176">multi-tenant · JWT</text>
  <text class="sub" x="412" y="194">regra de negócio + persistência</text>

  <!-- Mongo -->
  <rect class="card" x="672" y="112" width="220" height="102" rx="12"/>
  <use href="#db" x="692" y="132" width="56" height="42"/>
  <text class="h" x="760" y="150">MongoDB Atlas</text>
  <text class="sub" x="760" y="170">um banco por env</text>
  <text class="sub" x="692" y="196">app · staging · production</text>

  <!-- Sapphire (base de schemas da lib) -->
  <rect class="card" x="88" y="300" width="184" height="72" rx="11" stroke="#8b5cf6"/>
  <text class="h" x="106" y="326" font-size="12" fill="#7c3aed">Sapphire</text>
  <text class="sub" x="106" y="346">@ascendance-hub/</text>
  <text class="sub" x="106" y="362">sapphire-core (schemas)</text>

  <!-- Lib (shared contract) -->
  <rect class="card" x="300" y="300" width="200" height="72" rx="11" stroke="#8b5cf6"/>
  <text class="h" x="318" y="326" fill="#7c3aed">mintly-lib (npm)</text>
  <text class="sub" x="318" y="346">contratos + schemas</text>
  <text class="sub" x="318" y="362">+ clients HTTP tipados</text>

  <!-- lib declara schemas com Sapphire -->
  <line class="lib" x1="298" y1="336" x2="274" y2="336"/>
  <text class="libt" x="196" y="392">schemas via Sapphire</text>

  <!-- valkyrie + email -->
  <rect class="card" x="560" y="300" width="150" height="72" rx="11"/>
  <text class="h" x="578" y="326" font-size="12">valkyrie-jwt</text>
  <text class="sub" x="578" y="346">sessão (access +</text>
  <text class="sub" x="578" y="362">refresh com rotação)</text>

  <rect class="card" x="732" y="300" width="160" height="72" rx="11"/>
  <text class="h" x="750" y="326" font-size="12">Gmail SMTP</text>
  <text class="sub" x="750" y="346">e-mail de recuperação</text>
  <text class="sub" x="750" y="362">(nodemailer)</text>

  <!-- relations -->
  <line class="rel" x1="98" y1="170" x2="158" y2="164"/>
  <text class="relt" x="100" y="158">usa</text>

  <line class="rel" x1="340" y1="163" x2="390" y2="163"/>
  <text class="relt" x="344" y="153">HTTPS/JSON</text>
  <text class="relt" x="344" y="182">env + JWT</text>

  <line class="rel" x1="592" y1="163" x2="670" y2="163"/>
  <text class="relt" x="600" y="153">TCP · driver</text>

  <!-- lib dashed to web and api -->
  <path class="lib" d="M360 300 C 320 260, 300 240, 265 208"/>
  <path class="lib" d="M440 300 C 470 260, 480 245, 490 216"/>
  <text class="libt" x="286" y="270">mesmo contrato</text>

  <!-- api to valkyrie/email -->
  <line class="rel" x1="520" y1="214" x2="600" y2="298"/>
  <text class="relt" x="536" y="264">emite/valida</text>
  <line class="rel" x1="560" y1="214" x2="770" y2="298"/>
  <text class="relt" x="690" y="250">envia</text>

  <!-- caption -->
  <text class="sub" x="28" y="452">Web e API dependem do MESMO pacote de contratos (mintly-lib) — schemas e tipos declarados uma vez, consumidos dos dois lados.</text>
  <text class="sub" x="28" y="472">A API é o núcleo: valida, aplica regra, persiste no banco do `env`, e usa valkyrie (sessão) e Gmail (e-mail) como serviços de apoio.</text>
  <text class="libt" x="28" y="498">— · — mintly-lib (contrato compartilhado)</text>
  <text class="relt" x="260" y="498">──▶ chamada em runtime</text>
</svg>
